<?xml version="1.0" encoding="UTF-8" standalone="no"?>
<svg width="49px" height="49px" viewBox="0 0 49 49" version="1.1" xmlns="http://www.w3.org/2000/svg" xmlns:xlink="http://www.w3.org/1999/xlink" xmlns:sketch="http://www.bohemiancoding.com/sketch/ns">
    <!-- Generator: Sketch 3.0.2 (7799) - http://www.bohemiancoding.com/sketch -->
    <title>icon - transactioncleared</title>
    <description>Created with Sketch.</description>
    <defs></defs>
    <g id="Page-1" stroke="none" stroke-width="1" fill="none" fill-rule="evenodd" sketch:type="MSPage">
        <g id="Dashboard-07-3" sketch:type="MSArtboardGroup" transform="translate(-576.000000, -383.000000)" fill="#B8E986">
            <g id="icon---transactioncleared" sketch:type="MSLayerGroup" transform="translate(576.000000, 383.000000)">
                <path d="M41.8303733,7.17502844 C37.2008245,2.54893159 31.0456855,0 24.5001866,0 C17.953692,0 11.798553,2.54893159 7.16900422,7.17502844 C-2.38883817,16.7287943 -2.38983398,32.272201 7.16701259,41.8219857 C11.7965614,46.4510684 17.9526962,48.9990047 24.5011825,49 L24.5031741,49 C31.0496688,49 37.2048077,46.4520637 41.8343565,41.8249716 C51.3902073,32.2741916 51.3882157,16.7307849 41.8303733,7.17502844 L41.8303733,7.17502844 Z M40.4187583,40.4099752 C36.1663901,44.6600637 30.5154785,47 24.503235,47 L24.5022396,47 C18.48701,47 12.8341075,44.6590688 8.58173932,40.4079855 C-0.194742549,31.6372037 -0.193747144,17.3627963 8.58373013,8.58902989 C12.8360984,4.3409312 18.4880054,2 24.5002488,2 C30.5114969,2 36.1634039,4.3409312 40.4157721,8.58902989 C49.1932494,17.364786 49.1952402,31.6391935 40.4187583,40.4099752 L40.4187583,40.4099752 Z" id="Fill-1" sketch:type="MSShapeGroup"></path>
                <path d="M34.2829739,17.3127884 L19.9737256,32.5625677 L13.7170261,25.8942515 C13.3409891,25.4955968 12.7139301,25.473834 12.3140808,25.8477583 C11.9142314,26.2216826 11.8933956,26.8478573 12.2674482,27.2465121 L19.2494327,34.6874072 C19.2573702,34.695321 19.2682842,34.6982886 19.2772138,34.7062024 C19.2851513,34.7141161 19.2881278,34.7259867 19.2960653,34.7329112 C19.354604,34.7883074 19.4250489,34.817984 19.4915251,34.8555742 C19.529228,34.877337 19.5619701,34.9080028 19.6006651,34.9248195 C19.7207192,34.9732911 19.8467263,35 19.9737256,35 C20.1007249,35 20.226732,34.9732911 20.346786,34.9248195 C20.3864733,34.9080028 20.4182231,34.877337 20.455926,34.8555742 C20.5224022,34.817984 20.5928471,34.7883074 20.6513859,34.7329112 C20.6603155,34.7259867 20.663292,34.7141161 20.6712295,34.7062024 C20.6791669,34.6982886 20.6910731,34.695321 20.6990106,34.6874072 L35.7325518,18.6650489 C36.1066044,18.2663942 36.0857686,17.6402195 35.6859192,17.2662952 C35.2860699,16.8933601 34.6590109,16.9151229 34.2829739,17.3127884" id="Fill-2" sketch:type="MSShapeGroup"></path>
            </g>
        </g>
    </g>
</svg>