<?xml version="1.0" encoding="UTF-8" standalone="no"?>
<svg width="99px" height="100px" viewBox="0 0 99 100" version="1.1" xmlns="http://www.w3.org/2000/svg" xmlns:xlink="http://www.w3.org/1999/xlink" xmlns:sketch="http://www.bohemiancoding.com/sketch/ns">
    <!-- Generator: Sketch 3.0.3 (7891) - http://www.bohemiancoding.com/sketch -->
    <title>clock</title>
    <desc>Created with Sketch.</desc>
    <defs></defs>
    <g id="Page-1" stroke="none" stroke-width="1" fill="none" fill-rule="evenodd" sketch:type="MSPage">
        <g id="Clock" sketch:type="MSArtboardGroup" transform="translate(-1.000000, 0.000000)" fill="#1D1C1B">
            <g id="clock" sketch:type="MSLayerGroup" transform="translate(1.000000, 1.000000)">
                <path d="M74.6280031,47.056807 L51.4912788,47.056807 L51.4912788,13.3070355 C51.4912788,12.2069148 50.6003218,11.3159579 49.5002011,11.3159579 C48.4000804,11.3159579 47.5091235,12.2069148 47.5091235,13.3070355 L47.5091235,49.0478846 C47.5091235,50.1480053 48.4000804,51.0389622 49.5002011,51.0389622 L74.6280031,51.0389622 C75.7281237,51.0389622 76.6190807,50.1480053 76.6190807,49.0478846 C76.6190807,47.9477639 75.7281237,47.056807 74.6280031,47.056807" id="Fill-1" sketch:type="MSShapeGroup"></path>
                <path d="M49.5,94.5661316 C24.4023659,94.5661316 3.98074743,74.1465243 3.98074743,49.0488902 C3.98074743,23.9492449 24.4023659,3.52963762 49.5,3.52963762 C74.5976341,3.52963762 95.0192526,23.9492449 95.0192526,49.0488902 C95.0192526,74.1465243 74.5976341,94.5661316 49.5,94.5661316 M49.5,-0.452517644 C22.2041357,-0.452517644 0.000603356858,21.7530259 0.000603356858,49.0488902 C0.000603356858,76.3427433 22.2041357,98.5482868 49.5,98.5482868 C76.7958643,98.5482868 98.9993966,76.3427433 98.9993966,49.0488902 C98.9993966,21.7530259 76.7958643,-0.452517644 49.5,-0.452517644" id="Fill-3" sketch:type="MSShapeGroup"></path>
            </g>
        </g>
    </g>
</svg>