<?xml version="1.0" encoding="UTF-8" standalone="no"?>
<svg width="18px" height="13px" viewBox="0 0 18 13" version="1.1" xmlns="http://www.w3.org/2000/svg" xmlns:xlink="http://www.w3.org/1999/xlink" xmlns:sketch="http://www.bohemiancoding.com/sketch/ns">
    <!-- Generator: Sketch 3.0.2 (7799) - http://www.bohemiancoding.com/sketch -->
    <title>icon - email</title>
    <description>Created with Sketch.</description>
    <defs></defs>
    <g id="Page-1" stroke="none" stroke-width="1" fill="none" fill-rule="evenodd" sketch:type="MSPage">
        <g id="02-Creating-account-" sketch:type="MSArtboardGroup" transform="translate(-807.000000, -322.000000)" fill="#D4D4D4">
            <path d="M824.732647,333.026826 L824.732647,323.307913 C824.732647,322.937696 824.570118,322.595739 824.322353,322.353261 C824.288471,322.315957 824.254059,322.281478 824.212765,322.256043 C824.01,322.097783 823.766471,322 823.507588,322 L808.225059,322 C807.946588,322 807.691941,322.103435 807.486,322.271304 C807.482294,322.27413 807.479647,322.277522 807.475941,322.280348 C807.188471,322.52 807,322.889087 807,323.307913 L807,333.026826 C807,333.37613 807.127588,333.704522 807.358941,333.951522 C807.590294,334.198522 807.897882,334.334739 808.225059,334.334739 L823.507588,334.334739 C823.834765,334.334739 824.142353,334.198522 824.373706,333.951522 C824.605059,333.704522 824.732647,333.37613 824.732647,333.026826 L824.732647,333.026826 Z M822.379412,323.130435 L815.884588,327.524435 L809.360647,323.130435 L822.379412,323.130435 L822.379412,323.130435 Z M823.507588,333.204304 L808.225059,333.204304 C808.105412,333.204304 808.058824,333.154565 808.058824,333.026826 L808.058824,323.589957 L815.602941,328.670696 C815.775529,328.78713 815.995765,328.78713 816.168353,328.67013 L823.673824,323.592217 L823.673824,333.026826 C823.673824,333.090696 823.643647,333.132522 823.625118,333.152304 C823.607118,333.171522 823.567412,333.204304 823.507588,333.204304 L823.507588,333.204304 Z" id="icon---email" sketch:type="MSShapeGroup"></path>
        </g>
    </g>
</svg>