<?xml version="1.0" encoding="UTF-8" standalone="no"?>
<svg width="98px" height="95px" viewBox="0 0 98 95" version="1.1" xmlns="http://www.w3.org/2000/svg" xmlns:xlink="http://www.w3.org/1999/xlink" xmlns:sketch="http://www.bohemiancoding.com/sketch/ns">
    <!-- Generator: Sketch 3.0.4 (8053) - http://www.bohemiancoding.com/sketch -->
    <title>exchange</title>
    <desc>Created with Sketch.</desc>
    <defs></defs>
    <g id="Page-1" stroke="none" stroke-width="1" fill="none" fill-rule="evenodd" sketch:type="MSPage">
        <g id="exchange" sketch:type="MSLayerGroup" transform="translate(1.000000, 1.000000)" fill="#08B5E5">
            <path d="M92.3278,25.9482 C92.7688,26.3922 93.3478,26.6152 93.9268,26.6152 C94.4988,26.6152 95.0718,26.3982 95.5098,25.9642 C96.3928,25.0892 96.3998,23.6652 95.5258,22.7822 C88.8618,16.0542 71.2088,1.0242 70.4608,0.3872 C69.6208,-0.3268 68.3868,-0.3258 67.5488,0.3852 C66.7998,1.0192 49.1378,15.9972 42.4738,22.7342 C41.5998,23.6172 41.6078,25.0422 42.4908,25.9162 C43.3728,26.7892 44.7968,26.7832 45.6728,25.8982 C50.3987224,21.1209562 61.1846368,11.7622101 66.8422455,6.90541933 L66.8422455,76.9702455 C66.8422455,78.1629268 67.8102187,79.1309 69.0029,79.1309 C70.1955813,79.1309 71.1635545,78.1629268 71.1635545,76.9702455 L71.1635545,6.91772024 C76.821582,11.7927758 87.6003266,21.176382 92.3278,25.9482 Z M3.6737,65.6072748 C3.2327,65.1632748 2.6537,64.9402748 2.0747,64.9402748 C1.5027,64.9402748 0.9297,65.1572748 0.4917,65.5912748 C-0.3913,66.4662748 -0.3983,67.8902748 0.4757,68.7732748 C7.1397,75.5012748 24.7927,90.5312748 25.5407,91.1682748 C26.3807,91.8822748 27.6147,91.8812748 28.4527,91.1702748 C29.2017,90.5362748 46.8637,75.5582748 53.5277,68.8212748 C54.4017,67.9382748 54.3937,66.5132748 53.5107,65.6392748 C52.6287,64.7662748 51.2047,64.7722748 50.3287,65.6572748 C45.6027776,70.4345186 34.8168632,79.7932647 29.1592545,84.6500555 L29.1592545,14.5852293 C29.1592545,13.392548 28.1912813,12.4245748 26.9986,12.4245748 C25.8059187,12.4245748 24.8379455,13.392548 24.8379455,14.5852293 L24.8379455,84.6377546 C19.179918,79.762699 8.4011734,70.3790928 3.6737,65.6072748 Z" sketch:type="MSShapeGroup"></path>
        </g>
    </g>
</svg>