<?xml version="1.0" encoding="UTF-8" standalone="no"?>
<svg width="21px" height="22px" viewBox="0 0 21 22" version="1.1" xmlns="http://www.w3.org/2000/svg" xmlns:xlink="http://www.w3.org/1999/xlink" xmlns:sketch="http://www.bohemiancoding.com/sketch/ns">
    <!-- Generator: Sketch 3.0.3 (7892) - http://www.bohemiancoding.com/sketch -->
    <title>heart</title>
    <desc>Created with Sketch.</desc>
    <defs></defs>
    <g id="Page-1" stroke="none" stroke-width="1" fill="none" fill-rule="evenodd" sketch:type="MSPage">
        <g id="heart" sketch:type="MSLayerGroup" transform="translate(2.000000, 2.000000)" fill="#9FABB1">
            <path d="M5.2067758,0.707590252 L3.79331818,0.707582243 L8.29326718,5.20277534 L8.99999998,5.90876122 L9.70673281,5.20277536 L14.2067838,0.707480558 L12.7933102,0.707472548 L17.2932592,5.20276735 L17.0000006,4.49423325 L16.9952136,9.00366905 L17.288104,8.29762604 L8.292891,17.2928954 L9.70710099,17.2928874 L0.711785992,8.29771973 L1.00468446,9.00379339 L0.99999946,4.49425589 L0.706724804,5.20278335 L5.2067758,0.707590252 Z M-1.00043075,4.08119513 L-0.99999946,4.49633371 L-0.99531446,9.00587121 L-0.994884757,9.41948089 L-0.702415992,9.71194487 L8.29289901,18.7071126 L9.00000801,19.41421 L9.707109,18.7071046 L18.702322,9.71183516 L18.9947734,9.41938194 L18.9952124,9.00579215 L18.9999994,4.49635635 L19.0004401,4.08121779 L18.7067408,3.78782225 L14.2067918,-0.707472548 L13.500059,-1.4134744 L12.7933182,-0.707480558 L8.29326719,3.78781424 L9.70673282,3.78781426 L5.20678382,-0.707378843 L4.50005901,-1.41335673 L3.7933262,-0.707386852 L-0.706724804,3.78780625 L-1.00043075,4.08119513 Z" sketch:type="MSShapeGroup"></path>
        </g>
    </g>
</svg>