<?xml version="1.0" encoding="UTF-8" standalone="no"?>
<svg width="19px" height="9px" viewBox="0 0 19 9" version="1.1" xmlns="http://www.w3.org/2000/svg" xmlns:xlink="http://www.w3.org/1999/xlink" xmlns:sketch="http://www.bohemiancoding.com/sketch/ns">
    <!-- Generator: Sketch 3.0.2 (7799) - http://www.bohemiancoding.com/sketch -->
    <title>icon - key</title>
    <description>Created with Sketch.</description>
    <defs></defs>
    <g id="Page-1" stroke="none" stroke-width="1" fill="none" fill-rule="evenodd" sketch:type="MSPage">
        <g id="02-Creating-account-" sketch:type="MSArtboardGroup" transform="translate(-807.000000, -418.000000)" fill="#D4D4D4">
            <g id="icon---key" sketch:type="MSLayerGroup" transform="translate(807.000000, 418.000000)">
                <path d="M14.3378947,0.070875 C12.9021053,0.070875 11.5731579,0.905625 10.8636842,2.22525 L1.18263158,2.22525 C0.967894737,2.22525 0.775263158,2.3641875 0.694736842,2.5768125 L0.201052632,3.880125 C0.118947368,4.0966875 0.170526316,4.34475 0.330526316,4.503375 L1.80263158,5.9653125 C1.97263158,6.1340625 2.22473684,6.1655625 2.42473684,6.040125 L3.67631579,5.265 L5.06210526,6.2623125 C5.24894737,6.39675 5.49473684,6.3894375 5.67315789,6.244875 L7.31842105,4.919625 L8.33157895,6.0553125 C8.43052632,6.1666875 8.56842105,6.2296875 8.71210526,6.2296875 L10.7378947,6.2296875 C11.4036842,7.6854375 12.8068421,8.6383125 14.3384211,8.6383125 C16.5484211,8.6383125 18.3463158,6.7168125 18.3463158,4.354875 C18.3463158,3.2101875 17.9294737,2.1346875 17.1721053,1.32525 C16.4152632,0.516375 15.4084211,0.070875 14.3378947,0.070875 L14.3378947,0.070875 Z M14.3384211,7.5133125 C13.1178947,7.5133125 12.0078947,6.6915 11.5757895,5.468625 C11.4984211,5.2498125 11.3021053,5.1046875 11.0831579,5.1046875 L8.93736842,5.1046875 L7.75684211,3.781125 C7.57263158,3.574125 7.27263158,3.5476875 7.05894737,3.71925 L5.33894737,5.10525 L3.99105263,4.1355 C3.82368421,4.015125 3.60736842,4.0078125 3.43315789,4.11525 L2.23421053,4.8583125 L1.31263158,3.943125 L1.53684211,3.35025 L11.1831579,3.35025 C11.3878947,3.35025 11.5742105,3.223125 11.6605263,3.025125 C12.1442105,1.913625 13.1952632,1.195875 14.3378947,1.195875 C15.1273684,1.195875 15.87,1.524375 16.4278947,2.120625 C16.9863158,2.7174375 17.2936842,3.5105625 17.2936842,4.354875 C17.2936842,6.0969375 15.9678947,7.5133125 14.3384211,7.5133125 L14.3384211,7.5133125 Z" id="Fill-1" sketch:type="MSShapeGroup"></path>
                <path d="M14.9989474,3.4785 C14.5463158,3.4779375 14.1789474,3.8705625 14.1789474,4.354875 C14.1789474,4.8391875 14.5463158,5.23125 14.9994737,5.2318125 C15.4521053,5.23125 15.8194737,4.8391875 15.8194737,4.354875 C15.8194737,3.8705625 15.4521053,3.4785 14.9989474,3.4785" id="Fill-2" sketch:type="MSShapeGroup"></path>
            </g>
        </g>
    </g>
</svg>