<?xml version="1.0" encoding="UTF-8" standalone="no"?>
<svg width="100px" height="100px" viewBox="0 0 100 100" version="1.1" xmlns="http://www.w3.org/2000/svg" xmlns:xlink="http://www.w3.org/1999/xlink" xmlns:sketch="http://www.bohemiancoding.com/sketch/ns">
    <!-- Generator: Sketch 3.0.3 (7892) - http://www.bohemiancoding.com/sketch -->
    <title>Lock</title>
    <desc>Created with Sketch.</desc>
    <defs></defs>
    <g id="Page-1" stroke="none" stroke-width="1" fill="none" fill-rule="evenodd" sketch:type="MSPage">
        <g id="Lock" sketch:type="MSArtboardGroup" fill="#000000">
            <g id="Icon---lock" sketch:type="MSLayerGroup" transform="translate(11.000000, 1.000000)">
                <path d="M67.0821053,36.262 L60.0947368,36.262 L60.0947368,19.642 C60.0947368,8.81 50.8210526,-0.002 39.4210526,-0.002 C28.0189474,-0.002 18.7431579,8.81 18.7431579,19.642 L18.7431579,36.262 L11.7578947,36.262 C5.52631579,36.262 0.454736842,41.08 0.465263158,47.194 L4.52421053,87.342 C4.52421053,93.266 9.59578947,98.086 15.8294737,98.086 L63.0126316,98.086 C69.2463158,98.086 74.3178947,93.266 74.3073684,87.534 L78.3873684,47.002 C78.3873684,41.08 73.3157895,36.262 67.0821053,36.262 L67.0821053,36.262 Z M22.9536842,19.642 C22.9536842,11.016 30.3410526,3.998 39.4210526,3.998 C48.4989474,3.998 55.8842105,11.016 55.8842105,19.642 L55.8842105,36.262 L22.9536842,36.262 L22.9536842,19.642 L22.9536842,19.642 Z M70.1073684,87.342 C70.1073684,91.06 66.9242105,94.086 63.0126316,94.086 L15.8294737,94.086 C11.9178947,94.086 8.73473684,91.06 8.72631579,87.15 L4.66526316,47.002 C4.66526316,43.286 7.84842105,40.262 11.7578947,40.262 L67.0821053,40.262 C70.9936842,40.262 74.1768421,43.286 74.1852632,46.81 L70.1073684,87.342 L70.1073684,87.342 Z" id="Fill-1" sketch:type="MSShapeGroup"></path>
                <path d="M39.4147368,59.1 C34.6042105,59.1 30.6905263,62.818 30.6905263,67.39 C30.6905263,67.47 30.6968421,67.546 30.7052632,67.626 L32.5178947,82.174 C32.6421053,83.182 33.5410526,83.94 34.6084211,83.94 L44.2357895,83.94 C45.3031579,83.94 46.2021053,83.182 46.3263158,82.174 L48.1326316,67.626 C48.1431579,67.546 48.1473684,67.47 48.1473684,67.39 C48.1473684,62.818 44.2294737,59.1 39.4147368,59.1 L39.4147368,59.1 Z M42.3642105,79.94 L36.48,79.94 L34.9031579,67.284 C34.9621053,64.966 36.9642105,63.1 39.4147368,63.1 C41.8715789,63.1 43.8757895,64.966 43.9368421,67.284 L42.3642105,79.94 L42.3642105,79.94 Z" id="Fill-2" sketch:type="MSShapeGroup"></path>
            </g>
        </g>
    </g>
</svg>