<?xml version="1.0" encoding="UTF-8" standalone="no"?>
<svg width="100px" height="100px" viewBox="0 0 100 100" version="1.1" xmlns="http://www.w3.org/2000/svg" xmlns:xlink="http://www.w3.org/1999/xlink" xmlns:sketch="http://www.bohemiancoding.com/sketch/ns">
    <!-- Generator: Sketch 3.0.3 (7892) - http://www.bohemiancoding.com/sketch -->
    <title>Ok</title>
    <desc>Created with Sketch.</desc>
    <defs></defs>
    <g id="Page-1" stroke="none" stroke-width="1" fill="none" fill-rule="evenodd" sketch:type="MSPage">
        <g id="Ok" sketch:type="MSArtboardGroup" fill="#000000">
            <g id="Icon---okay" sketch:type="MSLayerGroup">
                <path d="M85.3681087,14.6429152 C75.9200499,5.2019012 63.3585419,0 50.0003809,0 C36.6401877,0 24.0786796,5.2019012 14.6306209,14.6429152 C-4.87517994,34.1403965 -4.87721221,65.8616347 14.6265563,85.3509912 C24.0746151,94.7980988 36.6381554,99.9979688 50.0024132,100 L50.0064778,100 C63.366671,100 75.9281791,94.80013 85.3762378,85.3570848 C104.877974,65.8656971 104.873909,34.1444589 85.3681087,14.6429152 L85.3681087,14.6429152 Z M82.4872618,82.4693372 C73.8089593,91.1429871 62.2764867,95.9183673 50.0066021,95.9183673 L50.0045706,95.9183673 C37.7285917,95.9183673 26.1920562,91.1409567 17.5137537,82.4652765 C-0.397433773,64.5657219 -0.395402335,35.4342781 17.5178166,17.5286324 C26.1961191,8.85904326 37.7306232,4.08163265 50.0005078,4.08163265 C62.2683609,4.08163265 73.802865,8.85904326 82.4811675,17.5286324 C100.394386,35.4383388 100.398449,64.5697826 82.4872618,82.4693372 L82.4872618,82.4693372 Z" id="Fill-1" sketch:type="MSShapeGroup"></path>
                <path d="M69.9652529,35.3322212 L40.7627052,66.4542198 L27.9939307,52.8454113 C27.2265084,52.0318302 25.9467961,51.9874164 25.1307771,52.7505271 C24.314758,53.5136379 24.2722359,54.7915456 25.0356086,55.6051266 L39.2845566,70.790627 C39.3007555,70.8067775 39.323029,70.8128339 39.3412527,70.8289844 C39.3574516,70.8451349 39.3635262,70.8693606 39.3797251,70.8834923 C39.4991919,70.9965458 39.642957,71.0571101 39.7786227,71.1338249 C39.8555674,71.1782388 39.9223879,71.240822 40.0013574,71.2751418 C40.2463656,71.3740635 40.503523,71.4285714 40.7627052,71.4285714 C41.0218875,71.4285714 41.2790448,71.3740635 41.524053,71.2751418 C41.6050475,71.240822 41.669843,71.1782388 41.7467878,71.1338249 C41.8824535,71.0571101 42.0262186,70.9965458 42.1456854,70.8834923 C42.1639092,70.8693606 42.1699837,70.8451349 42.1861826,70.8289844 C42.2023815,70.8128339 42.2266799,70.8067775 42.2428787,70.790627 L72.9235751,38.0919366 C73.6869477,37.2783556 73.6444257,36.0004479 72.8284066,35.2373371 C72.0123876,34.4762452 70.7326753,34.520659 69.9652529,35.3322212" id="Fill-2" sketch:type="MSShapeGroup"></path>
            </g>
        </g>
    </g>
</svg>