<?xml version="1.0" encoding="UTF-8" standalone="no"?>
<svg width="100px" height="100px" viewBox="0 0 100 100" version="1.1" xmlns="http://www.w3.org/2000/svg" xmlns:xlink="http://www.w3.org/1999/xlink" xmlns:sketch="http://www.bohemiancoding.com/sketch/ns">
    <!-- Generator: Sketch 3.0.3 (7892) - http://www.bohemiancoding.com/sketch -->
    <title>Receive</title>
    <desc>Created with Sketch.</desc>
    <defs></defs>
    <g id="Page-1" stroke="none" stroke-width="1" fill="none" fill-rule="evenodd" sketch:type="MSPage">
        <g id="Receive" sketch:type="MSArtboardGroup" fill="#2B2522">
            <path d="M49.9481606,81.0170892 C49.9641384,81.0174297 49.9801192,81.0176 49.9961,81.0176 C50.5161,81.0176 51.0351,80.8376 51.4561,80.4796 C52.2041,79.8416 69.8641,64.7716 76.5291,57.9976 C77.4011,57.1126 77.3901,55.6876 76.5041,54.8166 C75.6171,53.9436 74.1941,53.9546 73.3221,54.8416 C68.6214553,59.6192619 57.928506,68.9574255 52.2461,73.8666625 L52.2461,3.5336 C52.2461,2.2906 51.2391,1.2836 49.9961,1.2836 C48.7531,1.2836 47.7461,2.2906 47.7461,3.5336 L47.7461,73.8545646 C42.0636191,68.9278936 31.378466,59.5652225 26.6771,54.7886 C25.8061,53.9046 24.3811,53.8926 23.4961,54.7636 C22.6101,55.6356 22.5991,57.0596 23.4701,57.9456 C30.0679619,64.6494159 47.4410153,79.5417497 48.5063419,80.4536993 C48.8919606,80.7947054 49.3954502,81.005517 49.9480414,81.0170969 Z M92.7725,99 L7.1535,99 C4.9095,99 2.9685,98.065 1.6745,96.364 C0.5785,95.094 0.0005,93.48 0.0005,91.693 L0.0005,81.551 C0.0005,80.309 1.0075,79.301 2.2505,79.301 C3.4925,79.301 4.5005,80.309 4.5005,81.551 L4.5005,91.693 C4.5005,92.418 4.6985,92.993 5.1065,93.453 C5.1515,93.504 5.1945,93.557 5.2345,93.611 C5.6765,94.209 6.3035,94.5 7.1535,94.5 L92.7725,94.5 C93.4615,94.5 94.0115,94.303 94.4525,93.898 C94.5025,93.852 94.5555,93.808 94.6105,93.766 C95.2095,93.309 95.5005,92.654 95.5005,91.766 L95.5005,81.621 C95.5005,80.379 96.5075,79.371 97.7505,79.371 C98.9925,79.371 100.0005,80.379 100.0005,81.621 L100.0005,91.766 C100.0005,94.018 99.0855,95.972 97.4205,97.28 C96.1595,98.406 94.5535,99 92.7725,99 Z" id="Fill-1" sketch:type="MSShapeGroup"></path>
        </g>
    </g>
</svg>