<?xml version="1.0" encoding="UTF-8" standalone="no"?>
<svg width="100px" height="100px" viewBox="0 0 100 100" version="1.1" xmlns="http://www.w3.org/2000/svg" xmlns:xlink="http://www.w3.org/1999/xlink" xmlns:sketch="http://www.bohemiancoding.com/sketch/ns">
    <!-- Generator: Sketch 3.0.3 (7892) - http://www.bohemiancoding.com/sketch -->
    <title>Send</title>
    <desc>Created with Sketch.</desc>
    <defs></defs>
    <g id="Page-1" stroke="none" stroke-width="1" fill="none" fill-rule="evenodd" sketch:type="MSPage">
        <g id="Send" sketch:type="MSArtboardGroup" fill="#2B2522">
            <path d="M52.1635545,8.91772024 C57.821582,13.7927758 68.6003266,23.176382 73.3278,27.9482 C73.7688,28.3922 74.3478,28.6152 74.9268,28.6152 C75.4988,28.6152 76.0718,28.3982 76.5098,27.9642 C77.3928,27.0892 77.3998,25.6652 76.5258,24.7822 C69.8618,18.0542 52.2088,3.0242 51.4608,2.3872 C50.6208,1.6732 49.3868,1.6742 48.5488,2.3852 C47.7998,3.0192 30.1378,17.9972 23.4738,24.7342 C22.5998,25.6172 22.6078,27.0422 23.4908,27.9162 C24.3728,28.7892 25.7968,28.7832 26.6728,27.8982 C31.3987224,23.1209562 42.1846368,13.7622101 47.8422455,8.90541933 L47.8422455,78.9702455 C47.8422455,80.1629268 48.8102187,81.1309 50.0029,81.1309 C51.1955813,81.1309 52.1635545,80.1629268 52.1635545,78.9702455 L52.1635545,8.91772024 Z M92.7715,99 L7.1545,99 C4.9145,99 2.9735,98.072 1.6785,96.384 C0.5805,95.116 0.0005,93.509 0.0005,91.729 L0.0005,81.76 C0.0005,80.518 1.0075,79.51 2.2505,79.51 C3.4925,79.51 4.5005,80.518 4.5005,81.76 L4.5005,91.729 C4.5005,92.441 4.6975,93.009 5.1025,93.463 C5.1465,93.513 5.1885,93.563 5.2285,93.617 C5.6705,94.211 6.3005,94.5 7.1545,94.5 L92.7715,94.5 C93.4655,94.5 94.0185,94.305 94.4595,93.902 C94.5105,93.856 94.5625,93.813 94.6175,93.772 C95.2105,93.322 95.5005,92.677 95.5005,91.799 L95.5005,81.828 C95.5005,80.586 96.5075,79.578 97.7505,79.578 C98.9925,79.578 100.0005,80.586 100.0005,81.828 L100.0005,91.799 C100.0005,94.048 99.0825,95.996 97.4135,97.299 C96.1525,98.412 94.5495,99 92.7715,99 Z" id="Fill-1" sketch:type="MSShapeGroup"></path>
        </g>
    </g>
</svg>