<?xml version="1.0" encoding="UTF-8" standalone="no"?>
<svg width="100px" height="100px" viewBox="0 0 100 100" version="1.1" xmlns="http://www.w3.org/2000/svg" xmlns:xlink="http://www.w3.org/1999/xlink" xmlns:sketch="http://www.bohemiancoding.com/sketch/ns">
    <!-- Generator: Sketch 3.0.3 (7892) - http://www.bohemiancoding.com/sketch -->
    <title>Close</title>
    <desc>Created with Sketch.</desc>
    <defs></defs>
    <g id="Page-1" stroke="none" stroke-width="1" fill="none" fill-rule="evenodd" sketch:type="MSPage">
        <g id="Close" sketch:type="MSArtboardGroup" fill="#000000">
            <g id="Icon---close" sketch:type="MSLayerGroup" transform="translate(2.000000, 0.000000)">
                <path d="M82.8072759,14.6429152 C73.6426356,5.2019012 61.4579418,0 48.5004928,0 C35.5410724,0 23.3563786,5.2019012 14.1917383,14.6429152 C-4.72893656,34.1403965 -4.73090787,65.8616347 14.1877957,85.3509912 C23.352436,94.7980988 35.5391011,99.9979688 48.5024641,100 L48.5064067,100 C61.465827,100 73.6505209,94.80013 82.8131898,85.3570848 C101.731893,65.8656971 101.727951,34.1444589 82.8072759,14.6429152 L82.8072759,14.6429152 Z M80.0257514,82.4829379 C71.6042966,91.160221 60.4131452,95.9376016 48.5064067,95.9376016 L48.5044354,95.9376016 C36.5917829,95.9376016 25.3947176,91.1581898 16.9752341,82.4788755 C-0.405844249,64.5718232 -0.403872935,35.4281768 16.9791768,17.5150309 C25.4006315,8.8418102 36.5937543,4.06239844 48.5004928,4.06239844 C60.4052599,4.06239844 71.5983827,8.8418102 80.0198374,17.5150309 C97.4028871,35.4322392 97.4068298,64.5758856 80.0257514,82.4829379 L80.0257514,82.4829379 Z" id="Fill-1" sketch:type="MSShapeGroup"></path>
                <path d="M69.4204954,29.5917849 C68.6478227,28.8027384 67.398899,28.8027384 66.6262263,29.5917849 L48.9990119,47.6386948 L31.3737737,29.5917849 C30.601101,28.8027384 29.3502011,28.8027384 28.5795046,29.5917849 C27.8068318,30.3828546 27.8068318,31.6635378 28.5795046,32.4525843 L46.2047427,50.4994942 L28.5795046,68.5464041 C27.8068318,69.3374738 27.8068318,70.618157 28.5795046,71.4072035 C28.9648528,71.8017268 29.470746,72 29.9766391,72 C30.4805561,72 30.9864493,71.8017268 31.3737737,71.4072035 L48.9990119,53.3602936 L66.6262263,71.4072035 C67.0115746,71.8017268 67.5174677,72 68.0233609,72 C68.529254,72 69.0351472,71.8017268 69.4204954,71.4072035 C70.1931682,70.618157 70.1931682,69.3374738 69.4204954,68.5464041 L51.7932811,50.4994942 L69.4204954,32.4525843 C70.1931682,31.6635378 70.1931682,30.3828546 69.4204954,29.5917849" id="Fill-2" sketch:type="MSShapeGroup"></path>
            </g>
        </g>
    </g>
</svg>