<?xml version="1.0" encoding="UTF-8" standalone="no"?>
<svg width="26px" height="26px" viewBox="0 0 26 26" version="1.1" xmlns="http://www.w3.org/2000/svg" xmlns:xlink="http://www.w3.org/1999/xlink" xmlns:sketch="http://www.bohemiancoding.com/sketch/ns">
    <!-- Generator: Sketch 3.0.2 (7799) - http://www.bohemiancoding.com/sketch -->
    <title>icon - close</title>
    <description>Created with Sketch.</description>
    <defs></defs>
    <g id="Page-1" stroke="none" stroke-width="1" fill="none" fill-rule="evenodd" sketch:type="MSPage">
        <g id="Dashboard-03" sketch:type="MSArtboardGroup" transform="translate(-1065.000000, -308.000000)" fill="#9FABB1">
            <g id="icon---close" sketch:type="MSLayerGroup" transform="translate(1066.000000, 308.000000)">
                <path d="M20.78,3.67364706 C18.4555,1.30407843 15.365,-0.00152941176 12.0785,-0.00152941176 C8.7915,-0.00152941176 5.701,1.30407843 3.3765,3.67364706 C-1.4225,8.5672549 -1.423,16.5288627 3.3755,21.4204314 C5.7,23.7915294 8.791,25.0966275 12.079,25.0971373 L12.08,25.0971373 C15.367,25.0971373 18.4575,23.7920392 20.7815,21.4219608 C25.58,16.5298824 25.579,8.56827451 20.78,3.67364706 L20.78,3.67364706 Z M20.0745,20.7005882 C17.9385,22.8784706 15.1,24.0775294 12.08,24.0775294 L12.0795,24.0775294 C9.058,24.0775294 6.218,22.8779608 4.0825,20.6995686 C-0.326,16.2051373 -0.3255,8.89047059 4.0835,4.3945098 C6.2195,2.21764706 9.0585,1.01807843 12.0785,1.01807843 C15.098,1.01807843 17.937,2.21764706 20.073,4.3945098 C24.482,8.8914902 24.483,16.2061569 20.0745,20.7005882 L20.0745,20.7005882 Z" id="Fill-1" sketch:type="MSShapeGroup"></path>
                <path d="M17.52,7.2794902 C17.3245,7.08066667 17.0085,7.08066667 16.813,7.2794902 L12.353,11.8269412 L7.8935,7.2794902 C7.698,7.08066667 7.3815,7.08066667 7.1865,7.2794902 C6.991,7.47882353 6.991,7.80152941 7.1865,8.00035294 L11.646,12.5478039 L7.1865,17.0952549 C6.991,17.2945882 6.991,17.6172941 7.1865,17.8161176 C7.284,17.9155294 7.412,17.9654902 7.54,17.9654902 C7.6675,17.9654902 7.7955,17.9155294 7.8935,17.8161176 L12.353,13.2686667 L16.813,17.8161176 C16.9105,17.9155294 17.0385,17.9654902 17.1665,17.9654902 C17.2945,17.9654902 17.4225,17.9155294 17.52,17.8161176 C17.7155,17.6172941 17.7155,17.2945882 17.52,17.0952549 L13.06,12.5478039 L17.52,8.00035294 C17.7155,7.80152941 17.7155,7.47882353 17.52,7.2794902" id="Fill-2" sketch:type="MSShapeGroup"></path>
            </g>
        </g>
    </g>
</svg>