<?xml version="1.0" encoding="UTF-8" standalone="no"?>
<svg width="100px" height="100px" viewBox="0 0 100 100" version="1.1" xmlns="http://www.w3.org/2000/svg" xmlns:xlink="http://www.w3.org/1999/xlink" xmlns:sketch="http://www.bohemiancoding.com/sketch/ns">
    <!-- Generator: Sketch 3.0.3 (7892) - http://www.bohemiancoding.com/sketch -->
    <title>Tour</title>
    <desc>Created with Sketch.</desc>
    <defs></defs>
    <g id="Page-1" stroke="none" stroke-width="1" fill="none" fill-rule="evenodd" sketch:type="MSPage">
        <g id="Tour" sketch:type="MSArtboardGroup" fill="#000000">
            <path d="M95.0924078,60.4059998 L87.5165458,24.7654998 C87.1165458,22.8754998 85.2855113,21.6679998 83.4165458,22.0809998 C81.5579251,22.4869998 80.3751664,24.3489998 80.7751664,26.2389998 L86.6372354,53.8329998 C61.3786147,34.5269998 26.7406837,34.4779998 1.35792506,54.0989998 C-0.155868042,55.2679998 -0.44897149,57.4659998 0.706200923,59.0059998 C1.85792506,60.5354998 4.01999403,60.8364998 5.53723541,59.6674998 C28.5062009,41.9084998 59.8579251,42.0064998 82.6648216,59.5484998 L55.8786147,65.4144998 C54.0165458,65.8204998 52.8337871,67.6824998 53.2337871,69.5724998 C53.582063,71.2139998 55.0130975,72.3339998 56.6027526,72.3339998 C56.844132,72.3339998 57.0889595,72.3129998 57.3337871,72.2569998 L92.4475802,64.5674998 C94.3096492,64.1579998 95.4924078,62.2959998 95.0924078,60.4059998" id="Imported-Layers" sketch:type="MSShapeGroup" transform="translate(50.000000, 50.000000) rotate(-327.000000) translate(-50.000000, -50.000000) "></path>
        </g>
    </g>
</svg>