<?xml version="1.0" encoding="UTF-8" standalone="no"?>
<svg width="100px" height="100px" viewBox="0 0 100 100" version="1.1" xmlns="http://www.w3.org/2000/svg" xmlns:xlink="http://www.w3.org/1999/xlink" xmlns:sketch="http://www.bohemiancoding.com/sketch/ns">
    <!-- Generator: Sketch 3.0.3 (7892) - http://www.bohemiancoding.com/sketch -->
    <title>User</title>
    <desc>Created with Sketch.</desc>
    <defs>
        <path id="path-1" d="M0,0.456031956 L99.9991883,0.456031956 L99.9991883,100.456844 L0,100.456844 L0,0.456031956 Z"></path>
    </defs>
    <g id="Page-1" stroke="none" stroke-width="1" fill="none" fill-rule="evenodd" sketch:type="MSPage">
        <g id="User" sketch:type="MSArtboardGroup">
            <g id="Icon---user" sketch:type="MSLayerGroup">
                <mask id="mask-2" sketch:name="Clip 2" fill="white">
                    <use xlink:href="#path-1"></use>
                </mask>
                <g id="Clip-2"></g>
                <path d="M95.9412619,94.9761628 C95.9412619,95.7596392 95.3263631,96.3969749 94.5714378,96.3969749 L5.42734453,96.3969749 C4.67241925,96.3969749 4.0595498,95.7596392 4.0595498,94.9761628 L4.0595498,82.856636 C4.0595498,82.2680139 4.41671875,81.7341945 4.95044281,81.5271619 C34.2342379,70.1992303 39.1960452,65.4171829 40.1863773,62.2345639 C40.2472583,62.0397097 40.2776989,61.8367365 40.2776989,61.6317336 L40.2776989,56.7867645 C40.2776989,56.2549749 40.0707032,55.7455123 39.6993287,55.3659525 C36.6938332,52.2949687 34.3681762,48.0305028 32.9719704,43.0333038 C32.8461495,42.5827034 32.5681259,42.1909653 32.1866045,41.921011 C30.6625484,40.8493127 29.7533911,39.0692382 29.7533911,37.1633203 C29.7533911,35.472554 30.4758464,34.2262988 31.0826278,33.4793576 C31.3748569,33.1180654 31.5351771,32.667465 31.5351771,32.2006268 L31.5351771,21.3517119 C31.5351771,10.494678 38.0940978,4.51711876 50.0024352,4.51711876 C62.077181,4.51711876 68.4595466,10.3383887 68.4595466,21.3517119 L68.4595466,32.1965673 C68.4595466,32.6634056 68.6218961,33.114006 68.9141252,33.4773279 C69.5209066,34.2242691 70.2453913,35.472554 70.2453913,37.1633203 C70.2453913,39.0712679 69.336234,40.8513425 67.8101485,41.921011 C67.4265977,42.1909653 67.1485742,42.5847332 67.0227533,43.0373633 C65.6265474,48.0325325 63.3029199,52.2969984 60.2994537,55.3659525 C59.9280792,55.7455123 59.7210835,56.2549749 59.7210835,56.7867645 L59.7210835,61.6317336 C59.7210835,61.8367365 59.7515241,62.0397097 59.8124051,62.2365936 C60.806796,65.4253018 65.772662,70.2114087 95.0523983,81.5291916 C95.584093,81.7341945 95.9412619,82.2659841 95.9412619,82.856636 L95.9412619,94.9761628 Z M96.513544,77.7417126 C69.5696114,67.3251305 64.5753342,62.8516023 63.7798216,61.2542036 L63.7798216,57.5925679 C66.8441688,54.2435109 69.2367949,49.8450828 70.7425867,44.7869919 C72.9850395,42.933847 74.3041294,40.136877 74.3041294,37.1633203 C74.3041294,35.1295293 73.6892305,33.1951952 72.5182846,31.518637 L72.5182846,21.3517119 C72.5182846,8.07320836 64.3115163,0.457655741 50.0024352,0.457655741 C35.8983205,0.457655741 27.476439,8.26806258 27.476439,21.3517119 L27.476439,31.5226965 C26.3075225,33.1951952 25.694653,35.1315591 25.694653,37.1633203 C25.694653,40.1328175 27.0137429,42.9297875 29.2541663,44.7829324 C30.7599581,49.843053 33.1525842,54.2435109 36.2189608,57.5925679 L36.2189608,61.2542036 C35.4275069,62.8475428 30.4352591,67.3149819 3.483209,77.7417126 C1.39904701,78.5515755 0.000811747611,80.6076935 0.000811747611,82.856636 L0.000811747611,94.9761628 C0.000811747611,97.998433 2.43402521,100.456438 5.42734453,100.456438 L94.5714378,100.456438 C97.5647572,100.456438 100,97.998433 100,94.9761628 L100,82.856636 C100,80.5995746 98.5997354,78.5434566 96.513544,77.7417126 L96.513544,77.7417126 Z" id="Fill-1" fill="#1D1C1B" sketch:type="MSShapeGroup" mask="url(#mask-2)"></path>
            </g>
        </g>
    </g>
</svg>