<?xml version="1.0" encoding="UTF-8" standalone="no"?>
<svg width="71px" height="92px" viewBox="0 0 71 92" version="1.1" xmlns="http://www.w3.org/2000/svg" xmlns:xlink="http://www.w3.org/1999/xlink" xmlns:sketch="http://www.bohemiancoding.com/sketch/ns">
    <!-- Generator: Sketch 3.0.3 (7892) - http://www.bohemiancoding.com/sketch -->
    <title>sending</title>
    <desc>Created with Sketch.</desc>
    <defs>
        <path id="path-1" d="M0,2.84217094e-14 L57,2.84217094e-14 L57,60 L0,60"></path>
    </defs>
    <g id="Page-1" stroke="none" stroke-width="1" fill="none" fill-rule="evenodd" sketch:type="MSPage">
        <g id="Send-2" sketch:type="MSArtboardGroup" transform="translate(-154.000000, -115.000000)">
            <g id="sending" sketch:type="MSLayerGroup" transform="translate(107.000000, 83.000000)">
                <path d="M47.5,123.5 L58.0118681,108.698806" id="Line" stroke="#979797" stroke-linecap="square" sketch:type="MSShapeGroup"></path>
                <path d="M61.5,111.5 L67.4040533,103.186821" id="Line-2" stroke="#979797" stroke-linecap="square" sketch:type="MSShapeGroup"></path>
                <g id="Send-icon" transform="translate(92.870590, 66.517037) rotate(-285.000000) translate(-92.870590, -66.517037) translate(64.370590, 36.517037)">
                    <path d="M44.0481362,38.8397522 C41.2360368,35.4879369 36.2269847,35.0399466 32.8562317,37.833958 C29.4854786,40.6292173 29.033534,45.6095207 31.8456334,48.9575924 C31.9146805,49.0399528 31.9900046,49.11233 32.0615625,49.1909467 C37.1610035,55.083453 43.8686138,57.6428623 47.1778522,54.8975184 C50.4896014,52.1521745 49.156365,45.1328292 44.2389572,39.0918247 C44.1749318,39.0082165 44.1171833,38.9208646 44.0481362,38.8397522" id="Fill-1" fill="#ED8117" sketch:type="MSShapeGroup"></path>
                    <path d="M41.3536492,38.9526453 C39.4294702,36.6083837 36.0015625,36.2939709 33.6965049,38.2483607 C31.388974,40.2052657 31.0798192,43.6927321 33.0039983,46.0369937 C33.0509898,46.0961033 33.1029278,46.1451517 33.1511559,46.2004884 C36.6396579,50.3243262 41.2299873,52.116479 43.4954732,50.1935305 C45.7597224,48.2718397 44.8483342,43.3594546 41.4834942,39.1312317 C41.4402125,39.0708645 41.4006407,39.0104972 41.3536492,38.9526453" id="Fill-3" fill="#EEBB18" sketch:type="MSShapeGroup"></path>
                    <g id="Group-7" transform="translate(0.000000, 0.000000)">
                        <mask id="mask-2" sketch:name="Clip 6" fill="white">
                            <use xlink:href="#path-1"></use>
                        </mask>
                        <g id="Clip-6"></g>
                        <path d="M19.8502175,32 C17.6151683,33.8956284 7.93625098,43.8532716 19.7620747,59.5308323 C20.1240897,60.009268 20.7662728,60.3694267 20.7243001,59.3219828 C20.6057271,56.3341571 21.2793898,49.8140053 28.253163,43.905484 C37.6707999,35.9265827 19.8502175,32 19.8502175,32" id="Fill-5" fill="#5B6A72" sketch:type="MSShapeGroup" mask="url(#mask-2)"></path>
                    </g>
                    <path d="M30,23.742008 C32.2326808,21.886604 43.6036295,14.168791 56.6590468,28.4832482 C57.0573655,28.9202433 57.2911156,29.6127606 56.284837,29.3874839 C53.4148464,28.747114 46.9830487,28.2621433 40.0177136,34.0452884 C30.6090082,41.8548808 30,23.742008 30,23.742008" id="Fill-8" fill="#5B6A72" sketch:type="MSShapeGroup"></path>
                    <path d="M2.41276909,0.317490954 L2.42331038,0.333244616 L2.40855257,0.320641687 C1.5199214,1.05791303 -1.8891334,18.0834197 6.7726487,27.1186694 C15.4354849,36.1528689 24.0298027,44.2912102 25.6721365,45.9264403 C27.3155244,47.56062 28.541477,47.2266424 30.478967,45.6166183 C31.3602193,44.8824977 33.8458566,42.8166676 36.2945995,40.7812946 C38.7422882,38.7459215 41.2279255,36.6800915 42.1091778,35.9459709 C44.0477219,34.3359467 44.5990317,33.1953816 43.2782074,31.2912891 C41.9573831,29.3882469 35.4628913,19.5065004 28.0913637,9.39685096 C20.7219444,-0.71279848 3.30140026,-0.420830628 2.41276909,0.317490954" id="Fill-10" fill="#DCF2F9" sketch:type="MSShapeGroup"></path>
                    <path d="M2.41276909,1.31749516 L2.42331038,1.33324902 L2.40855257,1.32064593 C1.5199214,2.05792702 -1.8891334,19.0836589 6.7726487,28.117978 C15.4354849,37.1533473 24.0298027,45.290746 25.6721365,46.9259977 C27.3155244,48.5612494 28.541477,48.2262171 30.478967,46.6161716 C31.3602193,45.8830915 33.8458566,43.8172341 36.2945995,41.7807839 C38.7422882,39.7464342 41.2279255,37.6805768 42.1091778,36.9474967 C44.0477219,35.336401 44.5990317,34.1958209 43.2782074,32.2917032 C41.9573831,30.3886357 35.4628913,20.5067585 28.0913637,10.3969753 C20.7219444,0.287192088 3.30140026,0.579163804 2.41276909,1.31749516" id="Stroke-12" stroke="#5B6A72" stroke-width="1.993" stroke-linecap="round" stroke-linejoin="round" sketch:type="MSShapeGroup"></path>
                    <g id="Group-17" transform="translate(9.000000, 12.000000)" sketch:type="MSShapeGroup">
                        <path d="M1.62584591,11.4841339 C-0.85207025,8.51628973 -0.452442262,4.10237293 2.51638181,1.62545871 C5.48520589,-0.851455517 9.90003764,-0.452922801 12.3746143,2.51603461 C14.8514173,5.48276557 14.4529025,9.89890882 11.4840784,12.375823 C8.51525431,14.851624 4.1026489,14.4519781 1.62584591,11.4841339" id="Fill-14" fill="#FEFEFE"></path>
                        <path d="M1.62584591,11.4841339 C-0.85207025,8.51628973 -0.452442262,4.10237293 2.51638181,1.62545871 C5.48520589,-0.851455517 9.90003764,-0.452922801 12.3746143,2.51603461 C14.8514173,5.48276557 14.4529025,9.89890882 11.4840784,12.375823 C8.51525431,14.851624 4.1026489,14.4519781 1.62584591,11.4841339" id="Stroke-16" stroke="#5B6A72" stroke-width="2"></path>
                    </g>
                    <path d="M28.8555517,30.4347066 C28.6745401,30.4011259 28.4872506,30.4210644 28.2936832,30.4966209 C28.1011622,30.5732268 27.9389842,30.6687218 27.8071491,30.7820566 C27.7286759,30.8492179 27.6575268,30.9268732 27.5916092,31.0171213 C27.5256917,31.1063199 27.4723299,31.2007655 27.4325701,31.3025569 C27.3938567,31.4053977 27.378162,31.5071891 27.3875788,31.6110793 C27.3969956,31.7160189 27.4409406,31.8115139 27.5204602,31.9028114 C27.6460174,32.0486774 27.796686,32.1137399 27.9735124,32.0969496 C28.1492925,32.0791099 28.3439061,32.0276895 28.5573533,31.9384908 C28.7708006,31.8482428 28.9968035,31.7485502 29.2353622,31.6373142 C29.4728746,31.5260782 29.7187574,31.4494724 29.9719644,31.4053977 C30.2241251,31.3623725 30.4773321,31.377064 30.7326317,31.4515711 C30.9879314,31.5260782 31.2369531,31.7044755 31.4807434,31.986763 C31.7130242,32.2575072 31.8647391,32.5355971 31.9379808,32.8231315 C32.0112225,33.1117154 32.019593,33.3940029 31.9630923,33.675241 C31.9065915,33.9554297 31.7925437,34.2251244 31.6219952,34.4843252 C31.4514467,34.7435259 31.2411384,34.9817388 30.9910703,35.1989637 C30.6771773,35.4707573 30.3444508,35.6753895 29.9928906,35.8118109 C29.6413305,35.9503312 29.2573347,36.0101467 28.8409033,35.9986034 L28.8785705,34.5053131 C29.1139902,34.5567335 29.34941,34.5504371 29.5837834,34.486424 C29.8192032,34.4224108 30.0253262,34.3132736 30.2021526,34.1600618 C30.2900426,34.0855547 30.3685159,33.9984549 30.439665,33.9008611 C30.510814,33.8032673 30.5631295,33.7035746 30.5987041,33.6017833 C30.6342786,33.4999919 30.645788,33.3982005 30.6332323,33.2964091 C30.6217229,33.1946177 30.5777779,33.100172 30.5034899,33.0130722 C30.3779327,32.8672062 30.2230788,32.8010942 30.0389282,32.813687 C29.8547777,32.8252303 29.6517936,32.8735025 29.4331148,32.9606024 C29.2133897,33.0477022 28.9800626,33.1452961 28.7331334,33.2554826 C28.4862043,33.3667186 28.2350899,33.4443739 27.9808366,33.4894979 C27.7255369,33.5356713 27.4712836,33.524128 27.2180766,33.4569666 C26.9648696,33.3877065 26.7221257,33.2187538 26.4908912,32.9501084 C26.2659345,32.6898583 26.1215438,32.4180647 26.0535336,32.1326291 C25.9876161,31.8471934 25.9823845,31.5649059 26.0388853,31.2857666 C26.095386,31.0034791 26.2073412,30.7337844 26.3726581,30.4745836 C26.5390214,30.2153828 26.7409593,29.9824169 26.9784716,29.7777848 C27.2505122,29.5416707 27.5476642,29.3506806 27.8699277,29.2079628 C28.1911449,29.0641956 28.5332882,28.9959848 28.8963578,29.0001824 L28.8555517,30.4347066 Z" id="Fill-18" fill="#5B6A72" sketch:type="MSShapeGroup"></path>
                </g>
                <rect id="Rectangle-12" sketch:type="MSShapeGroup" x="0" y="0" width="177" height="143"></rect>
            </g>
        </g>
    </g>
</svg>